<svg width="32" height="32" viewBox="0 0 32 32" fill="none" xmlns="http://www.w3.org/2000/svg">
<circle cx="16" cy="16" r="16" fill="#6B7380"/>
<svg x="8" y="8" width="16" height="16" viewBox="0 0 16 16" fill="none" xmlns="http://www.w3.org/2000/svg">
<path d="M8 8C9.65685 8 11 6.65685 11 5C11 3.34315 9.65685 2 8 2C6.34315 2 5 3.34315 5 5C5 6.65685 6.34315 8 8 8Z" fill="white"/>
<path d="M14 12C14 10.3432 12.6569 9 11 9H5C3.34315 9 2 10.3432 2 12V13C2 13.5523 2.44772 14 3 14H13C13.5523 14 14 13.5523 14 13V12Z" fill="white"/>
</svg>
</svg>
